<svg version="1.1" id="Uploaded to svgrepo.com" xmlns="http://www.w3.org/2000/svg" xmlns:xlink="http://www.w3.org/1999/xlink" x="0px" y="0px"
	 width="32px" height="32px" viewBox="0 0 32 32" style="enable-background:new 0 0 32 32;" xml:space="preserve">
<style type="text/css">
	.open_een{fill:#0B1719;}
</style>
<g>
	<g>
		<path class="open_een" d="M16,30c-0.189,0-0.362-0.107-0.447-0.276l-1.5-3C14.019,26.654,14,26.578,14,26.5v-12
			c0-0.276,0.224-0.5,0.5-0.5h6.586c0.31,0,0.432-0.236,0.462-0.309s0.11-0.326-0.108-0.545l-1-1C20.156,11.863,20,11.486,20,11.086
			V6.5C20,5.673,20.673,5,21.5,5C21.775,5,22,4.776,22,4.5v-1C22,3.224,21.775,3,21.5,3h-11C10.225,3,10,3.224,10,3.5v1
			C10,4.776,10.225,5,10.5,5C11.327,5,12,5.673,12,6.5v4.586c0,0.4-0.156,0.777-0.439,1.061l-1,1
			c-0.219,0.219-0.139,0.473-0.108,0.545S10.604,14,10.914,14H11.5c0.276,0,0.5,0.224,0.5,0.5S11.776,15,11.5,15h-0.586
			c-0.618,0-1.149-0.355-1.386-0.926c-0.236-0.571-0.112-1.198,0.325-1.635l1-1C10.946,11.346,11,11.217,11,11.086V6.5
			C11,6.224,10.775,6,10.5,6C9.673,6,9,5.327,9,4.5v-1C9,2.673,9.673,2,10.5,2h11C22.327,2,23,2.673,23,3.5v1
			C23,5.327,22.327,6,21.5,6C21.225,6,21,6.224,21,6.5v4.586c0,0.131,0.054,0.26,0.146,0.354l1,1
			c0.438,0.437,0.562,1.063,0.325,1.635C22.235,14.645,21.704,15,21.086,15H15v11.382l1,2l1-2V17.5c0-0.276,0.224-0.5,0.5-0.5
			s0.5,0.224,0.5,0.5v9c0,0.078-0.019,0.154-0.053,0.224l-1.5,3C16.362,29.893,16.189,30,16,30z"/>
	</g>
	<g>
		<path class="open_een" d="M16,30c-0.189,0-0.362-0.107-0.447-0.276l-1.5-3C14.019,26.654,14,26.578,14,26.5v-12
			c0-0.276,0.224-0.5,0.5-0.5h6.586c0.31,0,0.432-0.236,0.462-0.309s0.11-0.326-0.108-0.545l-1-1C20.156,11.863,20,11.486,20,11.086
			V6.5C20,5.673,20.673,5,21.5,5C21.775,5,22,4.776,22,4.5v-1C22,3.224,21.775,3,21.5,3h-11C10.225,3,10,3.224,10,3.5v1
			C10,4.776,10.225,5,10.5,5C11.327,5,12,5.673,12,6.5v4.586c0,0.4-0.156,0.777-0.439,1.061l-1,1
			c-0.219,0.219-0.139,0.473-0.108,0.545S10.604,14,10.914,14H11.5c0.276,0,0.5,0.224,0.5,0.5S11.776,15,11.5,15h-0.586
			c-0.618,0-1.149-0.355-1.386-0.926c-0.236-0.571-0.112-1.198,0.325-1.635l1-1C10.946,11.346,11,11.217,11,11.086V6.5
			C11,6.224,10.775,6,10.5,6C9.673,6,9,5.327,9,4.5v-1C9,2.673,9.673,2,10.5,2h11C22.327,2,23,2.673,23,3.5v1
			C23,5.327,22.327,6,21.5,6C21.225,6,21,6.224,21,6.5v4.586c0,0.131,0.054,0.26,0.146,0.354l1,1
			c0.438,0.437,0.562,1.063,0.325,1.635C22.235,14.645,21.704,15,21.086,15H15v11.382l1,2l1-2V17.5c0-0.276,0.224-0.5,0.5-0.5
			s0.5,0.224,0.5,0.5v9c0,0.078-0.019,0.154-0.053,0.224l-1.5,3C16.362,29.893,16.189,30,16,30z"/>
	</g>
</g>
</svg>