<?xml version="1.0" encoding="iso-8859-1"?>
<!-- Generator: Adobe Illustrator 18.0.0, SVG Export Plug-In . SVG Version: 6.00 Build 0)  -->
<!DOCTYPE svg PUBLIC "-//W3C//DTD SVG 1.1//EN" "http://www.w3.org/Graphics/SVG/1.1/DTD/svg11.dtd">
<svg version="1.1" id="Capa_1" xmlns="http://www.w3.org/2000/svg" xmlns:xlink="http://www.w3.org/1999/xlink" x="0px" y="0px"
	 viewBox="0 0 239.622 239.622" style="enable-background:new 0 0 239.622 239.622;" xml:space="preserve">
<g>
	<path d="M167.226,12.964C102.701-15.649,29.87,13.115,7.153,70.957c-0.223,0.151-0.305,0.436-0.242,0.681
		C-0.361,90.547-2.328,112.51,3.1,136.59c13.871,61.535,72.322,70.207,125.9,60.412c-0.525,26.161,31.691,40.965,54.095,40.842
		c1.443-0.008,2.167-1.797,1.169-2.822c-9.211-9.46-14.878-20.738-16.895-33.693c42.957,0.034,68.988-39.494,71.934-79.549
		C243.077,70.47,212.957,33.242,167.226,12.964z M163.631,197.557c-2.372-0.107-2.358,3.556,0,3.681
		c0.169,0.009,0.333,0.004,0.502,0.012c1.885,12.612,6.868,23.612,15.145,33.16c-7.564-0.47-15.494-2.46-22.712-5.811
		c1.269,0.493,3.355,0.341,4.657,0.448c2.071,0.171,4.124,0.279,6.203,0.3c0.517,0.005,0.667-0.854,0.126-0.931
		c-1.666-0.239-3.32-0.444-5-0.574c-0.886-0.068-1.772-0.126-2.659-0.188c-0.309-0.022-2.262,0.004-3.202,0.019
		c0.119-0.113,0.186-0.282,0.077-0.441l-0.128-0.189c-0.098-0.144-0.259-0.22-0.431-0.176c-1.116,0.285-0.69,1.154,0.023,1.576
		c-4.562-2.152-8.811-4.873-12.49-8.116c5.046,0.196,10.075,0.587,15.097,1.164c0.733,0.084,0.909-1.175,0.176-1.296
		c-5.593-0.927-11.205-1.296-16.862-1.328c-2.291-2.226-4.302-4.687-5.978-7.362c4.233,0.734,8.464,1.557,12.732,2.041
		c0.611,0.069,0.751-0.96,0.146-1.078c-4.375-0.85-8.826-1.33-13.242-1.93c-0.073-0.01-0.123,0.029-0.185,0.047
		c-1.514-2.585-2.668-5.387-3.476-8.362c5.208,0.309,10.469,0.296,15.629-0.516c0.688-0.109,0.533-1.281-0.166-1.224
		c-5.269,0.431-10.46,0.782-15.741,0.587c-0.45-1.925-0.794-3.901-0.899-5.984c-0.063-1.247-1.762-1.238-1.938-0.067
		c-30.849,4.418-65.254,6.892-92.144-11.629c12.42,1.634,24.857,3.175,37.309,4.526c0.815,0.088,0.79-1.16,0-1.264
		c-13.076-1.726-26.184-3.254-39.298-4.669c-3.889-2.883-7.343-6.137-10.445-9.653c7.468,1.66,15.022,2.972,22.658,3.512
		c0.8,0.057,0.766-1.136,0-1.227c-8.035-0.961-16.001-2.06-23.919-3.724c-3.153-3.778-5.825-7.895-8.167-12.202
		c6.285,0.483,12.571,0.981,18.867,1.275c0.82,0.038,0.801-1.197,0-1.264c-6.518-0.55-13.052-0.881-19.582-1.236
		c-2.133-4.093-3.887-8.391-5.354-12.806c6.716,1.137,13.475,1.642,20.307,1.45c0.847-0.024,0.852-1.316,0-1.32
		c-6.974-0.035-13.874-0.616-20.765-1.598c-1.133-3.608-1.987-7.31-2.717-11.042c13.993,0.237,28.002,0.624,41.992,0.131
		c0.814-0.029,0.813-1.228,0-1.264c-14.068-0.63-28.166-0.37-42.243-0.268c-0.736-4.046-1.244-8.135-1.554-12.232
		c0.258,0.354,0.386,0.447,0.919,0.408c0.251-0.018,0.421-0.187,0.44-0.44c0.003-0.037,0.006-0.075,0.009-0.112
		c3.373,0.466,16.593,0.73,17.969,0.633c0.85-0.06,0.871-1.341,0-1.339c-4.436,0.012-8.894-0.061-13.322-0.335
		c-1.836-0.114-4.827-1.221-6.054,0.532c-0.212-3.032-0.332-6.068-0.291-9.093c0.031-2.277,0.219-4.506,0.383-6.743
		c7.509,0.796,15.043,1.478,22.581,1.868c0.791,0.041,0.754-1.122,0-1.209c-7.476-0.857-14.996-1.431-22.511-1.887
		c0.385-4.557,1.131-8.986,2.047-13.345c15.859,0.576,31.71,1.127,47.58,1.28c1.081,0.01,1.073-1.63,0-1.673
		c-15.752-0.634-31.505-0.873-47.267-1.087c1.035-4.601,2.409-9.055,4.005-13.392c7.756,1.395,15.539,1.8,23.43,0.896
		c0.888-0.102,0.912-1.5,0-1.413c-7.747,0.742-15.378,0.538-23.017-0.676c2.214-5.798,4.956-11.307,8.107-16.536
		c8.939,0.861,17.854,1.895,26.812,2.542c0.737,0.053,0.711-1.055,0-1.134c-8.738-0.977-17.505-1.585-26.263-2.346
		c3.511-5.69,7.584-10.982,12.11-15.862c8.892,0.926,17.78,1.906,26.703,2.488c1.017,0.066,0.978-1.452,0-1.562
		c-8.502-0.952-17.038-1.539-25.57-2.158C48.361,20.563,69.382,9.361,93.804,5.714c48.459-7.238,109.364,18.329,132.994,62.789
		C252.573,116.997,226.755,200.392,163.631,197.557z"/>
	<path d="M119.801,36.311c-40.1-6.085-77.969,47.484-37.902,73.9c0.33,0.218,0.663,0.125,0.95-0.055
		c0.4,0.424,1.07,0.571,1.626,0.021c3.05-3.011,6.077-6.044,9.277-8.897c1.7-1.516,5.578-3.623,6.304-5.955
		c1.153-3.702-3.437-8.669-4.237-11.933c-4.591-18.721,18.893-21.308,27.693-8.522c6.073,8.824,8.407,30.224-6.987,32.045
		c-0.466,0.055-0.813,0.278-1.064,0.571c-0.156-1.676-2.885-1.543-3.111,0.313c-1.83,15.011-2.344,30.118-1.942,45.227
		c0.028,1.055,1.009,1.83,2.045,1.558c8.097-2.119,15.846-2.608,24.119-1.596c0.798,0.098,1.698-0.818,1.607-1.607
		c-1.215-10.596-1.462-21.348-2.922-31.905c0.234,0.095,0.494,0.136,0.785,0.053C180.017,106.865,156.774,41.921,119.801,36.311z
		 M135.032,117.133c-0.233,0.12-0.376,0.292-0.48,0.479c-0.461-0.082-1.042,0.216-1.096,0.766
		c-0.494,4.968-0.342,9.896-0.076,14.878c0.144,2.693,2.492,12.872,1.212,14.836c-1.589,2.439-7.585,0.982-10.383,1.165
		c-3.595,0.236-7.099,0.915-10.586,1.753c-0.28-13.849,0.387-27.586,1.709-41.371c0.249,0.317,0.637,0.519,1.194,0.454
		c23.416-2.739,16.33-39.6-1.585-45.865c-8.097-2.832-17.69,0.016-21.612,8.018c-2.892,5.9-0.544,10.013,0.865,15.853
		c1.219,5.05,0.756,6.895-2.538,11.082c-2.58,3.279-6.048,6.062-8.79,9.26c-35.811-28.859,1.171-78.494,40.84-67.777
		C158.423,50.045,168.729,99.854,135.032,117.133z"/>
	<path d="M136.941,159.028c-1.935-1.325-6.072-0.443-8.141-0.405c-4.574,0.085-9.269-0.099-13.783,0.691
		c-0.7,0.123-0.702,1.296,0,1.417c2.646,0.456,5.277,0.472,7.959,0.542c3.036,0.078,7.844-0.792,10.676,0.192
		c2.725,0.947,1.463,5.206,1.346,7.883c-0.128,2.921-0.255,5.842-0.39,8.763c-5.202-0.818-10.424-0.887-15.648,0.035
		c-0.868,0.153-3.499,1.31-4.316,0.989c-2.409-0.946-1.773-4.146-1.774-6.018c-0.002-2.422-1.161-9.63,0.812-11.449
		c1.544-1.424-0.681-3.467-2.248-2.248c-2.832,2.203-1.861,6.766-1.87,9.918c-0.009,3.193-1.387,9.384,0.705,12.071
		c1.526,1.959,4.088,1.217,6.125,0.74c6.487-1.522,12.736-1.792,19.315-0.631c1.044,0.184,2.004-0.433,2.04-1.554
		c0.164-5.146,0.439-10.293,0.551-15.441C138.338,162.694,138.74,160.26,136.941,159.028z"/>
	<path d="M74.881,23.731c-8.397,0.154-16.792-0.049-25.151-0.88c-0.64-0.064-0.797,1.045-0.153,1.132
		c8.43,1.143,16.802,1.641,25.305,1.198C75.807,25.133,75.82,23.714,74.881,23.731z"/>
	<path d="M105.953,13.696c-11.722,0.007-23.41-0.401-35.059-1.761c-0.907-0.106-1.13,1.475-0.217,1.607
		c11.731,1.7,23.426,2.518,35.276,1.884C107.056,15.366,107.074,13.696,105.953,13.696z"/>
</g>
<g>
</g>
<g>
</g>
<g>
</g>
<g>
</g>
<g>
</g>
<g>
</g>
<g>
</g>
<g>
</g>
<g>
</g>
<g>
</g>
<g>
</g>
<g>
</g>
<g>
</g>
<g>
</g>
<g>
</g>
</svg>
